<svg height="800" width="1200" viewBox="-7.4481 -12.7791 64.5502 76.6746" version="1.1" xmlns="http://www.w3.org/2000/svg">
  <path
     fill="#ff2d20"
     d="m 49.625588,-1.2152283 a 0.809,0.809 0 0 1 0.028,0.209 V 9.9657712 a 0.8,0.8 0 0 1 -0.402,0.6939998 l -9.209,5.302 v 10.509 c 0,0.286 -0.152,0.55 -0.4,0.694 l -19.223,11.066 c -0.044,0.025 -0.092,0.041 -0.14,0.058 -0.018,0.006 -0.035,0.017 -0.054,0.022 a 0.805,0.805 0 0 1 -0.41,0 c -0.022,-0.006 -0.042,-0.018 -0.063,-0.026 -0.044,-0.016 -0.09,-0.03 -0.132,-0.054 l -19.21899948,-11.066 a 0.801,0.801 0 0 1 -0.40200000836,-0.694 V -6.4452283 c 0,-0.072 0.009999998,-0.142 0.0279999984,-0.21 0.006,-0.023 0.02,-0.044 0.028,-0.067 0.015,-0.042 0.029,-0.085 0.051,-0.124 0.015,-0.026 0.037,-0.047 0.055,-0.071 0.023,-0.032 0.044,-0.065 0.071,-0.093 0.023,-0.023 0.053,-0.04 0.079,-0.06 0.029,-0.024 0.055,-0.05 0.088,-0.069 h 0.001 L 10.010588,-12.672229 a 0.802,0.802 0 0 1 0.8,0 l 9.61,5.5330007 h 0.002 c 0.032,0.02 0.059,0.045 0.088,0.068 0.026,0.02 0.055,0.038 0.078,0.06 0.028,0.029 0.048,0.062 0.072,0.094 0.017,0.024 0.04,0.045 0.054,0.071 0.023,0.04 0.036,0.082 0.052,0.124 0.008,0.023 0.022,0.044 0.028,0.068 a 0.809,0.809 0 0 1 0.028,0.209 V 14.113771 l 8.008,-4.6109998 V -1.0072283 c 0,-0.07 0.01,-0.141 0.028,-0.208 0.007,-0.024 0.02,-0.045 0.028,-0.068 0.016,-0.042 0.03,-0.085 0.052,-0.124 0.015,-0.026 0.037,-0.047 0.054,-0.071 0.024,-0.032 0.044,-0.065 0.072,-0.093 0.023,-0.023 0.052,-0.04 0.078,-0.06 0.03,-0.024 0.056,-0.05 0.088,-0.069 h 10e-4 l 9.611,-5.533 a 0.801,0.801 0 0 1 0.8,0 l 9.61,5.533 c 0.034,0.02 0.06,0.045 0.09,0.068 0.025,0.02 0.054,0.038 0.077,0.06 0.028,0.029 0.048,0.062 0.072,0.094 0.018,0.024 0.04,0.045 0.054,0.071 0.023,0.039 0.036,0.082 0.052,0.124 0.009,0.023 0.022,0.044 0.028,0.068 z m -1.574,10.7179995 V 0.37877173 l -3.363,1.93599997 -4.646,2.675 v 9.1239993 l 8.01,-4.6109998 z m -9.61,16.5049998 v -9.13 l -4.57,2.61 -13.05,7.448 v 9.216 z M 1.6015885,-5.0602283 V 26.007771 l 17.6179995,10.143 v -9.214 l -9.204,-5.209 -0.003,-0.002 -0.004,-0.002 c -0.031,-0.018 -0.057,-0.044 -0.086,-0.066 -0.025,-0.02 -0.054,-0.036 -0.076,-0.058 l -0.002,-0.003 c -0.026,-0.025 -0.044,-0.056 -0.066,-0.084 -0.02,-0.027 -0.044,-0.05 -0.06,-0.078 l -0.001,-0.003 c -0.018,-0.03 -0.029,-0.066 -0.042,-0.1 -0.013,-0.03 -0.03,-0.058 -0.038,-0.09 v -0.001 c -0.01,-0.038 -0.012,-0.078 -0.016,-0.117 -0.004,-0.03 -0.012,-0.06 -0.012,-0.09 V -0.44922826 l -4.6449998,-2.67600004 -3.363,-1.934 z m 8.8099995,-5.9940007 -8.0069995,4.6090007 8.0049995,4.609 8.006,-4.61 -8.006,-4.6080007 z m 4.164,28.764 4.645,-2.674 V -5.0602283 l -3.363,1.936 -4.646,2.67500004 V 19.646771 Z m 24.667,-23.3249993 -8.006,4.609 8.006,4.609 8.005,-4.61 z m -0.801,10.605 -4.646,-2.675 -3.363,-1.93599997 V 9.5027712 l 4.645,2.6739998 3.364,1.937 z m -18.422,20.5609993 11.743,-6.704 5.87,-3.35 -8,-4.606 -9.211,5.303 -8.395,4.833 z"
     id="path2" />
  <path
     style="stroke-width:0.0394706"
     d="M -0.43466448,43.597194 V 55.781385 H 5.2772552 V 53.988629 H 1.5497404 V 43.597194 Z m 48.64170948,0 V 55.781385 H 50.08784 V 43.597194 Z M 9.7982705,47.461237 c -0.6100195,0 -1.1678661,0.113187 -1.6739591,0.339433 C 7.617942,48.026916 7.1837729,48.337618 6.8213927,48.732009 6.4590516,49.126598 6.1770773,49.5821 5.975856,50.098297 5.7743978,50.61481 5.6738902,51.157393 5.6738902,51.72577 c 0,0.580417 0.1005076,1.125633 0.3019658,1.636107 0.2011427,0.510829 0.4831165,0.96334 0.8455367,1.357731 0.3623802,0.394587 0.7966679,0.704861 1.3029187,0.931108 0.506093,0.226245 1.0639396,0.339432 1.6739591,0.339432 0.4715955,0 0.9404655,-0.116018 1.4062985,-0.348067 0.465951,-0.231969 0.825458,-0.551124 1.078583,-0.957396 v 1.096546 h 1.881026 v -8.11123 h -1.881026 v 1.096777 C 12.030027,48.360663 11.67052,48.041704 11.204569,47.809459 10.738736,47.57745 10.269866,47.461237 9.7982705,47.461237 Z m 15.2893485,0 c -0.61002,0 -1.167866,0.113187 -1.673959,0.339433 -0.50637,0.226246 -0.940539,0.536948 -1.302919,0.931339 -0.362341,0.394589 -0.644315,0.850091 -0.845537,1.366288 -0.201497,0.516513 -0.301966,1.059096 -0.301966,1.627473 0,0.580417 0.100469,1.125633 0.301966,1.636107 0.201143,0.510829 0.483078,0.96334 0.845537,1.357731 0.36238,0.394587 0.796629,0.704861 1.302919,0.931108 0.506093,0.226245 1.063939,0.339432 1.673959,0.339432 0.471595,0 0.940464,-0.116018 1.406297,-0.348067 0.465951,-0.231969 0.825459,-0.551124 1.078584,-0.957396 v 1.096546 h 1.881026 v -8.11123 H 27.5725 v 1.096777 C 27.319375,48.360663 26.959867,48.041704 26.493916,47.809459 26.028083,47.57745 25.559214,47.461237 25.087619,47.461237 Z m 17.914458,4.4e-4 c -2.303113,0 -4.126385,1.909206 -4.126385,4.264223 0,2.603328 1.764436,4.264302 4.367527,4.264302 1.456862,0 2.386785,-0.561881 3.523145,-1.785433 l -1.27054,-0.991701 c -7.9e-4,9.83e-4 -0.959161,1.270232 -2.390368,1.270232 -1.663293,0 -2.363462,-1.352662 -2.363462,-2.052477 h 6.240304 C 47.309903,49.751183 45.563329,47.4617 43.002077,47.4617 Z m -27.353739,0.208555 v 8.111153 h 1.880795 v -6.244389 h 3.227115 v -1.866764 z m 14.713015,0 3.087272,8.111153 h 2.363924 l 3.087196,-8.111153 h -1.905079 l -2.364079,6.211317 -2.364157,-6.211317 z m 12.625691,1.29837 c 2.009452,0 2.253429,1.896094 2.267638,2.052477 h -4.5076 c 0.0142,-0.156107 0.230906,-2.052477 2.239962,-2.052477 z M 9.901727,49.14969 c 0.356539,0 0.681741,0.06959 0.975127,0.208839 0.293267,0.139253 0.543495,0.325014 0.750637,0.557062 0.207063,0.232206 0.368074,0.504773 0.483131,0.818092 0.114899,0.313317 0.17253,0.643954 0.17253,0.992164 0,0.348013 -0.05763,0.678768 -0.17253,0.992087 -0.115057,0.313397 -0.276186,0.586121 -0.483131,0.818169 -0.207142,0.232206 -0.45737,0.417809 -0.750637,0.557061 -0.293386,0.139253 -0.618707,0.208841 -0.975127,0.208841 -0.356736,0 -0.6788719,-0.06959 -0.9664158,-0.208841 C 8.6476882,53.953912 8.4004481,53.768309 8.1933852,53.536103 7.9862428,53.304055 7.8279481,53.031331 7.7188117,52.717934 7.6092412,52.404615 7.5549158,52.07386 7.5549158,51.725847 c 0,-0.34821 0.054326,-0.678847 0.1638959,-0.992164 0.1091364,-0.313319 0.2674311,-0.585886 0.4745735,-0.818092 0.2070629,-0.231969 0.4542244,-0.417809 0.741926,-0.557062 C 9.2228551,49.219277 9.544991,49.14969 9.901727,49.14969 Z m 15.289425,0 c 0.356538,0 0.681741,0.06959 0.975127,0.208839 0.293267,0.139253 0.543495,0.325014 0.750637,0.557062 0.207062,0.232206 0.368074,0.504773 0.483131,0.818092 0.114899,0.313317 0.17253,0.643954 0.17253,0.992164 -8e-5,0.348013 -0.05771,0.678768 -0.17253,0.992087 -0.115057,0.313397 -0.276187,0.586121 -0.483131,0.818169 -0.207142,0.232206 -0.45737,0.417809 -0.750637,0.557061 -0.293386,0.139253 -0.618707,0.208841 -0.975127,0.208841 -0.356736,0 -0.678872,-0.06959 -0.966416,-0.208841 -0.287622,-0.139252 -0.534863,-0.324855 -0.741925,-0.557061 -0.207142,-0.232048 -0.365437,-0.504772 -0.474574,-0.818169 -0.109571,-0.313319 -0.163896,-0.644074 -0.163896,-0.992087 0,-0.34821 0.05432,-0.678847 0.163896,-0.992164 0.109137,-0.313319 0.267432,-0.585886 0.474574,-0.818092 0.207062,-0.231969 0.454223,-0.417809 0.741925,-0.557062 0.287544,-0.139252 0.60968,-0.208839 0.966416,-0.208839 z" />
</svg>
